<svg width="250" height="61" viewBox="0 0 250 61" fill="none" xmlns="http://www.w3.org/2000/svg">
<g clip-path="url(#clip0_1329_923)">
<path fill-rule="evenodd" clip-rule="evenodd" d="M25.6078 0.207031H29.9604V60.4178H25.6078V0.207031ZM72.9762 25.43V57.6491H79.7882V47.2032H85.5145C87.9897 47.2032 90.0977 46.7468 91.8388 45.8344C93.5902 44.922 94.9276 43.6476 95.8504 42.0116C96.7734 40.3754 97.2348 38.4877 97.2348 36.3481C97.2348 34.2085 96.7786 32.3206 95.8662 30.6846C94.9642 29.038 93.6532 27.7533 91.9332 26.8302C90.2131 25.8968 88.1314 25.43 85.6875 25.43H72.9762ZM79.7882 41.7441H84.4132C85.7244 41.7441 86.8046 41.5187 87.6541 41.0677C88.5141 40.6062 89.1538 39.9717 89.5734 39.164C90.0035 38.346 90.2183 37.4074 90.2183 36.3481C90.2183 35.2782 90.0035 34.3448 89.5734 33.5478C89.1538 32.7402 88.5141 32.1162 87.6541 31.6757C86.794 31.2248 85.7033 30.9991 84.3818 30.9991H79.7882V41.7441ZM101.534 33.4847V57.6491H108.235V43.9781C108.235 42.9923 108.456 42.1216 108.896 41.3666C109.347 40.6114 109.955 40.0241 110.721 39.6046C111.497 39.1747 112.378 38.9596 113.364 38.9596C113.825 38.9596 114.334 38.9962 114.89 39.0696C115.446 39.143 115.881 39.2271 116.196 39.3215V33.3747C115.902 33.3013 115.561 33.2437 115.173 33.2017C114.785 33.1597 114.423 33.1387 114.088 33.1387C112.735 33.1387 111.539 33.5268 110.501 34.303C109.463 35.0686 108.723 36.2013 108.283 37.7011H108.031V33.4847H101.534ZM123.114 56.5636C124.897 57.6019 127.01 58.121 129.454 58.121C131.898 58.121 134.006 57.6019 135.778 56.5636C137.561 55.5149 138.935 54.057 139.9 52.1901C140.865 50.3128 141.347 48.1366 141.347 45.6614C141.347 43.1653 140.865 40.9837 139.9 39.1168C138.935 37.2395 137.561 35.7818 135.778 34.7435C134.006 33.6946 131.898 33.1703 129.454 33.1703C127.01 33.1703 124.897 33.6946 123.114 34.7435C121.341 35.7818 119.973 37.2395 119.008 39.1168C118.043 40.9837 117.56 43.1653 117.56 45.6614C117.56 48.1366 118.043 50.3128 119.008 52.1901C119.973 54.057 121.341 55.5149 123.114 56.5636ZM132.27 51.9856C131.525 52.615 130.597 52.9297 129.485 52.9297C128.363 52.9297 127.419 52.615 126.654 51.9856C125.898 51.3458 125.327 50.4754 124.939 49.3741C124.561 48.2728 124.372 47.0195 124.372 45.6141C124.372 44.2088 124.561 42.9554 124.939 41.8544C125.327 40.7531 125.898 39.8824 126.654 39.2427C127.419 38.6029 128.363 38.283 129.485 38.283C130.597 38.283 131.525 38.6029 132.27 39.2427C133.015 39.8824 133.576 40.7531 133.953 41.8544C134.341 42.9554 134.535 44.2088 134.535 45.6141C134.535 47.0195 134.341 48.2728 133.953 49.3741C133.576 50.4754 133.015 51.3458 132.27 51.9856ZM158.558 38.5191V33.4847H154.011V27.6954H147.31V33.4847H144.006V38.5191H147.31V51.1046C147.299 52.6884 147.63 53.9993 148.301 55.0376C148.972 56.0759 149.911 56.8415 151.117 57.3344C152.333 57.8276 153.749 58.0424 155.364 57.9796C156.235 57.948 156.974 57.859 157.583 57.7121C158.191 57.5757 158.663 57.4551 158.999 57.3502L157.944 52.3631C157.777 52.3947 157.536 52.4419 157.221 52.5048C156.906 52.5572 156.591 52.5834 156.277 52.5834C155.826 52.5834 155.427 52.5154 155.081 52.3789C154.746 52.2427 154.483 52.0066 154.295 51.6709C154.106 51.3248 154.011 50.8425 154.011 50.2238V38.5191H158.558ZM167.242 56.5636C169.025 57.6019 171.138 58.121 173.582 58.121C176.026 58.121 178.134 57.6019 179.906 56.5636C181.689 55.5149 183.063 54.057 184.028 52.1901C184.993 50.3128 185.475 48.1366 185.475 45.6614C185.475 43.1653 184.993 40.9837 184.028 39.1168C183.063 37.2395 181.689 35.7818 179.906 34.7435C178.134 33.6946 176.026 33.1703 173.582 33.1703C171.138 33.1703 169.025 33.6946 167.242 34.7435C165.47 35.7818 164.101 37.2395 163.136 39.1168C162.171 40.9837 161.689 43.1653 161.689 45.6614C161.689 48.1366 162.171 50.3128 163.136 52.1901C164.101 54.057 165.47 55.5149 167.242 56.5636ZM176.398 51.9856C175.653 52.615 174.725 52.9297 173.614 52.9297C172.491 52.9297 171.547 52.615 170.782 51.9856C170.027 51.3458 169.455 50.4754 169.067 49.3741C168.689 48.2728 168.501 47.0195 168.501 45.6141C168.501 44.2088 168.689 42.9554 169.067 41.8544C169.455 40.7531 170.027 39.8824 170.782 39.2427C171.547 38.6029 172.491 38.283 173.614 38.283C174.725 38.283 175.653 38.6029 176.398 39.2427C177.143 39.8824 177.704 40.7531 178.081 41.8544C178.469 42.9554 178.663 44.2088 178.663 45.6141C178.663 47.0195 178.469 48.2728 178.081 49.3741C177.704 50.4754 177.143 51.3458 176.398 51.9856ZM194.364 56.548C196.147 57.5967 198.276 58.121 200.751 58.121C202.901 58.121 204.763 57.7277 206.336 56.9411C207.909 56.1547 209.142 55.0638 210.032 53.6691C210.935 52.2635 211.438 50.6379 211.542 48.792H205.219C205.093 49.6416 204.826 50.3706 204.417 50.9788C204.018 51.5767 203.509 52.0328 202.891 52.3475C202.282 52.6622 201.595 52.8194 200.83 52.8194C199.791 52.8194 198.884 52.5364 198.108 51.97C197.332 51.4035 196.729 50.5802 196.299 49.5C195.879 48.4197 195.67 47.1087 195.67 45.5669C195.67 44.0463 195.885 42.751 196.315 41.6811C196.745 40.6114 197.343 39.7986 198.108 39.2427C198.884 38.6763 199.791 38.3932 200.83 38.3932C202.057 38.3932 203.048 38.7655 203.803 39.5101C204.569 40.2443 205.041 41.2144 205.219 42.4207H211.542C211.449 40.5538 210.939 38.9282 210.018 37.5436C209.094 36.1593 207.841 35.0842 206.257 34.3186C204.674 33.553 202.828 33.1703 200.72 33.1703C198.276 33.1703 196.168 33.6998 194.395 34.7591C192.623 35.808 191.254 37.2709 190.289 39.1484C189.335 41.0151 188.858 43.1863 188.858 45.6614C188.858 48.105 189.33 50.2656 190.274 52.1431C191.228 54.0204 192.592 55.4885 194.364 56.548ZM220.413 56.5636C222.196 57.6019 224.309 58.121 226.753 58.121C229.196 58.121 231.303 57.6019 233.077 56.5636C234.86 55.5149 236.233 54.057 237.198 52.1901C238.163 50.3128 238.645 48.1366 238.645 45.6614C238.645 43.1653 238.163 40.9837 237.198 39.1168C236.233 37.2395 234.86 35.7818 233.077 34.7435C231.303 33.6946 229.196 33.1703 226.753 33.1703C224.309 33.1703 222.196 33.6946 220.413 34.7435C218.639 35.7818 217.27 37.2395 216.305 39.1168C215.34 40.9837 214.858 43.1653 214.858 45.6614C214.858 48.1366 215.34 50.3128 216.305 52.1901C217.27 54.057 218.639 55.5149 220.413 56.5636ZM229.569 51.9856C228.824 52.615 227.894 52.9297 226.784 52.9297C225.661 52.9297 224.718 52.615 223.951 51.9856C223.196 51.3458 222.626 50.4754 222.237 49.3741C221.859 48.2728 221.671 47.0195 221.671 45.6141C221.671 44.2088 221.859 42.9554 222.237 41.8544C222.626 40.7531 223.196 39.8824 223.951 39.2427C224.718 38.6029 225.661 38.283 226.784 38.283C227.894 38.283 228.824 38.6029 229.569 39.2427C230.313 39.8824 230.875 40.7531 231.251 41.8544C231.64 42.9554 231.834 44.2088 231.834 45.6141C231.834 47.0195 231.64 48.2728 231.251 49.3741C230.875 50.4754 230.313 51.3458 229.569 51.9856ZM249.706 57.6491V25.43H243.003V57.6491H249.706ZM0.207031 22.1208V26.4733H13.0883L0.21898 47.8914L3.94986 50.1331L20.7891 22.1079H15.7113L15.7036 22.1208H0.207031ZM55.6035 22.1208V26.4733H42.7218L55.5929 47.8912L51.8616 50.1331L35.0199 22.1079H40.0985L40.1062 22.1208H55.6035Z" fill="black"/>
<path d="M29.9632 0.210678H30.1192V0.0546875H29.9632V0.210678ZM25.6107 0.210678V0.0546875H25.4547V0.210678H25.6107ZM29.9632 60.4216V60.5776H30.1192V60.4216H29.9632ZM25.6107 60.4216H25.4547V60.5776H25.6107V60.4216ZM0.209915 26.477H0.0539247V26.633H0.209915V26.477ZM0.209915 22.1244V21.9684H0.0539247V22.1244H0.209915ZM13.0911 26.477L13.2249 26.5573L13.3669 26.321H13.0911V26.477ZM0.221863 47.8951L0.0881532 47.8148L0.0078125 47.9486L0.141522 48.0288L0.221863 47.8951ZM3.95274 50.1368L3.87239 50.2705L4.00609 50.3508L4.08643 50.2173L3.95274 50.1368ZM20.792 22.1115L20.9258 22.1918L21.0676 21.9556H20.792V22.1115ZM15.7142 22.1115V21.9556H15.6259L15.5804 22.0313L15.7142 22.1115ZM15.7065 22.1244V22.2804H15.7947L15.8402 22.2047L15.7065 22.1244ZM55.6063 26.477V26.633H55.7623V26.477H55.6063ZM55.6063 22.1244H55.7623V21.9684H55.6063V22.1244ZM42.7247 26.477V26.321H42.4489L42.5909 26.5573L42.7247 26.477ZM55.5957 47.8949L55.6762 48.0286L55.8099 47.9484L55.7294 47.8146L55.5957 47.8949ZM51.8644 50.1368L51.7307 50.2171L51.811 50.3508L51.9447 50.2705L51.8644 50.1368ZM35.0227 22.1115V21.9556H34.7469L34.889 22.1918L35.0227 22.1115ZM40.1013 22.1115L40.2351 22.0313L40.1895 21.9556H40.1013V22.1115ZM40.109 22.1244L39.9753 22.2047L40.0208 22.2804H40.109V22.1244ZM29.9632 0.0546875H25.6107V0.366669H29.9632V0.0546875ZM30.1192 60.4216V0.210678H29.8072V60.4216H30.1192ZM25.6107 60.5776H29.9632V60.2656H25.6107V60.5776ZM25.4547 0.210678V60.4216H25.7667V0.210678H25.4547ZM0.365905 26.477V22.1244H0.0539247V26.477H0.365905ZM13.0911 26.321H0.209915V26.633H13.0911V26.321ZM0.355572 47.9754L13.2249 26.5573L12.9574 26.3965L0.0881532 47.8148L0.355572 47.9754ZM4.03306 50.0031L0.302205 47.7614L0.141522 48.0288L3.87239 50.2705L4.03306 50.0031ZM20.6583 22.0313L3.81902 50.0565L4.08643 50.2173L20.9258 22.1918L20.6583 22.0313ZM15.7142 22.2675H20.792V21.9556H15.7142V22.2675ZM15.8402 22.2047L15.8479 22.1918L15.5804 22.0313L15.5727 22.0439L15.8402 22.2047ZM0.209915 22.2804H15.7065V21.9684H0.209915V22.2804ZM55.7623 26.477V22.1244H55.4503V26.477H55.7623ZM42.7247 26.633H55.6063V26.321H42.7247V26.633ZM42.5909 26.5573L55.4622 47.9754L55.7294 47.8146L42.8584 26.3965L42.5909 26.5573ZM55.5154 47.7612L51.7839 50.0031L51.9447 50.2705L55.6762 48.0286L55.5154 47.7612ZM51.9982 50.0563L35.1565 22.0313L34.889 22.1918L51.7307 50.2171L51.9982 50.0563ZM35.0227 22.2675H40.1013V21.9556H35.0227V22.2675ZM39.9676 22.1918L39.9753 22.2047L40.2428 22.0439L40.2351 22.0313L39.9676 22.1918ZM55.6063 21.9684H40.109V22.2804H55.6063V21.9684Z" fill="#CDCDCD"/>
<path d="M30.1192 0.210678H29.9632V0.0546875M30.1192 0.210678V0.0546875H29.9632M30.1192 0.210678V60.4216M30.1192 0.210678H29.8072V60.4216H30.1192M29.9632 0.0546875H25.6107M29.9632 0.0546875V0.366669H25.6107V0.0546875M25.6107 0.0546875V0.210678H25.4547M25.6107 0.0546875H25.4547V0.210678M25.4547 0.210678V60.4216M25.4547 0.210678H25.7667V60.4216H25.4547M29.9632 60.5776V60.4216H30.1192M29.9632 60.5776H30.1192V60.4216M29.9632 60.5776H25.6107M29.9632 60.5776V60.2656H25.6107V60.5776M25.4547 60.4216H25.6107V60.5776M25.4547 60.4216V60.5776H25.6107M0.0539247 26.477H0.209915V26.633M0.0539247 26.477V26.633H0.209915M0.0539247 26.477V22.1244M0.0539247 26.477H0.365905V22.1244H0.0539247M0.209915 26.633V26.321H13.0911M0.209915 26.633H13.0911V26.321M0.209915 21.9684V22.1244H0.0539247M0.209915 21.9684H0.0539247V22.1244M0.209915 21.9684H15.7065V22.2804M0.209915 21.9684V22.2804H15.7065M13.2249 26.5573L13.0911 26.477V26.321M13.2249 26.5573L13.3669 26.321H13.0911M13.2249 26.5573L0.355572 47.9754L0.0881532 47.8148M13.2249 26.5573L12.9574 26.3965L0.0881532 47.8148M0.0881532 47.8148L0.221863 47.8951L0.141522 48.0288M0.0881532 47.8148L0.0078125 47.9486L0.141522 48.0288M0.141522 48.0288L0.302205 47.7614L4.03306 50.0031L3.87239 50.2705M0.141522 48.0288L3.87239 50.2705M3.87239 50.2705L3.95274 50.1368L4.08643 50.2173M3.87239 50.2705L4.00609 50.3508L4.08643 50.2173M4.08643 50.2173L3.81902 50.0565L20.6583 22.0313L20.9258 22.1918M4.08643 50.2173L20.9258 22.1918M20.9258 22.1918L20.792 22.1115V21.9556M20.9258 22.1918L21.0676 21.9556H20.792M20.792 21.9556V22.2675H15.7142V21.9556M20.792 21.9556H15.7142M15.7142 21.9556V22.1115L15.5804 22.0313M15.7142 21.9556H15.6259L15.5804 22.0313M15.5804 22.0313L15.8479 22.1918L15.8402 22.2047M15.5804 22.0313L15.5727 22.0439L15.8402 22.2047M15.7065 22.2804V22.1244L15.8402 22.2047M15.7065 22.2804H15.7947L15.8402 22.2047M55.6063 26.633V26.477H55.7623M55.6063 26.633H55.7623V26.477M55.6063 26.633H42.7247V26.321M55.6063 26.633V26.321H42.7247M55.7623 26.477V22.1244M55.7623 26.477H55.4503V22.1244H55.7623M55.7623 22.1244H55.6063V21.9684M55.7623 22.1244V21.9684H55.6063M55.6063 21.9684H40.109V22.2804M55.6063 21.9684V22.2804H40.109M42.7247 26.321V26.477L42.5909 26.5573M42.7247 26.321H42.4489L42.5909 26.5573M42.5909 26.5573L55.4622 47.9754L55.7294 47.8146M42.5909 26.5573L42.8584 26.3965L55.7294 47.8146M55.6762 48.0286L55.5957 47.8949L55.7294 47.8146M55.6762 48.0286L55.8099 47.9484L55.7294 47.8146M55.6762 48.0286L51.9447 50.2705M55.6762 48.0286L55.5154 47.7612L51.7839 50.0031L51.9447 50.2705M51.7307 50.2171L51.8644 50.1368L51.9447 50.2705M51.7307 50.2171L51.811 50.3508L51.9447 50.2705M51.7307 50.2171L34.889 22.1918M51.7307 50.2171L51.9982 50.0563L35.1565 22.0313L34.889 22.1918M35.0227 21.9556V22.1115L34.889 22.1918M35.0227 21.9556H34.7469L34.889 22.1918M35.0227 21.9556H40.1013M35.0227 21.9556V22.2675H40.1013V21.9556M40.2351 22.0313L40.1013 22.1115V21.9556M40.2351 22.0313L40.1895 21.9556H40.1013M40.2351 22.0313L40.2428 22.0439L39.9753 22.2047M40.2351 22.0313L39.9676 22.1918L39.9753 22.2047M39.9753 22.2047L40.109 22.1244V22.2804M39.9753 22.2047L40.0208 22.2804H40.109" stroke="black"/>
</g>
<defs>
<clipPath id="clip0_1329_923">
<rect width="250" height="60.7322" fill="white"/>
</clipPath>
</defs>
</svg>
